<?xml version="1.0" standalone="yes"?>
<svg xmlns="http://www.w3.org/2000/svg" width="400" height="133">
<path style="fill:#fefefe; stroke:none;" d="M0 0L0 133L400 133L400 0L0 0z"/>
<path style="fill:#e3be49; stroke:none;" d="M68.6667 13.3333L69.3333 13.6667L68.6667 13.3333z"/>
<path style="fill:#2496f0; stroke:none;" d="M66 14.6235C55.8589 16.9077 43.8308 16.5714 34.1844 19.3179C31.0096 20.2218 29.2146 23.5698 26.9066 25.7006C24.1425 28.2525 18.7152 30.5018 17.3565 34.1844C15.1451 40.1782 24.082 49.3783 29 51.2577C35.7342 53.8312 46.7837 52.9995 54 53C70.8 53.0011 91.7207 56.021 108 51.5664C113.48 50.0669 122.644 40.5394 120.353 34.2091C118.843 30.0367 109.636 23.5371 106.139 20.6034C103.226 18.1605 98.5382 19.0163 95 18.9992C85.8297 18.955 74.6326 12.679 66 14.6235z"/>
<path style="fill:#e3be49; stroke:none;" d="M71 14L72 15L71 14M63 15L64 16L63 15M60 16L61 17L60 16M56 17L57 18L56 17M81 17L82 18L81 17M50 18L51 19L50 18M87 18L88 19L87 18M31 20L32 21L31 20M107 22L108 23L107 22M29 23L30 24L29 23M28 24L29 25L28 24M27 25L28 26L27 25M26 26L27 27L26 26z"/>
<path style="fill:#1867c0; stroke:none;" d="M61 27C61.8893 31.1022 59.0716 37.1789 61.0679 40.6065C63.9907 45.6247 75.1266 45.8013 77.0841 39.7863C78.2874 36.0888 75.8477 30.9548 76 27L61 27z"/>
<path style="fill:#e3be49; stroke:none;" d="M112 27L113 28L112 27M22 29L23 30L22 29z"/>
<path style="fill:#1f2426; stroke:none;" d="M66.4367 30.0324C62.1933 32.9097 66.2992 39.4025 70.7716 36.9282C76.0075 34.0315 71.2359 26.7783 66.4367 30.0324z"/>
<path style="fill:#1867c0; stroke:none;" d="M68 30L69 31L68 30z"/>
<path style="fill:#e3be49; stroke:none;" d="M116 30L117 31L116 30M66 32L67 36L71 36L72 32L66 32M16 33L17 34L16 33M121 34L122 35L121 34M17 38L18 39L17 38M18 40L19 41L18 40M19 42L20 43L19 42M117 43L118 44L117 43M23 47L24 48L23 47M24 48L25 49L24 48M25 49L26 50L25 49z"/>
<path style="fill:#1867c0; stroke:none;" d="M28 51L29 60C48.9319 60.8558 68.013 62.3372 88 62.0031C97.6124 61.8424 109.043 62.596 110 51L69 53L28 51z"/>
<path style="fill:#2496f0; stroke:none;" d="M109 55L109 59L110 59L109 55M28 56L28 60L29 60L28 56M108 59L109 60L108 59M30 60C32.7875 65.3728 38.6545 72.3489 45 73L45 75L63.0895 78.6073L83 78L87 75C90.5265 76.1755 92.5112 75.444 93 73L96 74L108 60L74 62.9961L30 60z"/>
<path style="fill:#e3be49; stroke:none;" d="M30 61L31 62L30 61M33 65L34 66L33 65M34 66L35 67L34 66M35 67L36 68L35 67M39 70L40 71L39 70M98 70L99 71L98 70z"/>
<path style="fill:#1867c0; stroke:none;" d="M66 79C59.0444 78.4503 49.638 73.3694 43.1049 74.2122C36.6152 75.0494 37.4269 86.0171 40.0093 89.892C48.2734 102.293 64.8621 90.038 66 79z"/>
<path style="fill:#e3be49; stroke:none;" d="M44 73L45 74L44 73M93 73L94 74L93 73M46 74L47 75L46 74M91 74L92 75L91 74z"/>
<path style="fill:#1867c0; stroke:none;" d="M72 79C73.1496 90.163 89.3912 102.292 97.7716 89.8117C100.437 85.843 101.514 75.454 94.8951 74.5023C88.4908 73.5814 78.6944 78.1532 72 79z"/>
<path style="fill:#e3be49; stroke:none;" d="M49 75L50 76L49 75M87.6667 75.3333L88.3333 75.6667L87.6667 75.3333z"/>
<path style="fill:#2496f0; stroke:none;" d="M39 76L40 77L39 76z"/>
<path style="fill:#e3be49; stroke:none;" d="M52 76L53 77L52 76M83 76L84 77L83 76M85 76L86 77L85 76z"/>
<path style="fill:#2496f0; stroke:none;" d="M98 76L99 77L98 76z"/>
<path style="fill:#e3be49; stroke:none;" d="M56.6667 77.3333L57.3333 77.6667L56.6667 77.3333M59 77L60 78L59 77M78 77L79 78L78 77M80.6667 77.3333L81.3333 77.6667L80.6667 77.3333z"/>
<path style="fill:#2496f0; stroke:none;" d="M38 78L39 79L38 78z"/>
<path style="fill:#e3be49; stroke:none;" d="M65 78L66 79L65 78z"/>
<path style="fill:#2496f0; stroke:none;" d="M99 78L100 79L99 78z"/>
<path style="fill:#e3be49; stroke:none;" d="M71.3333 79.6667L71.6667 80.3333L71.3333 79.6667M37 81L37 84L38 84L37 81M65 83L66 84L65 83z"/>
<path style="fill:#2496f0; stroke:none;" d="M72 83L73 84L72 83z"/>
<path style="fill:#e3be49; stroke:none;" d="M64 85L65 86L64 85z"/>
<path style="fill:#2496f0; stroke:none;" d="M73 85L74 86L73 85M99 86L100 87L99 86z"/>
<path style="fill:#e3be49; stroke:none;" d="M38 87L39 88L38 87M74 87L75 88L74 87M62 88L63 89L62 88z"/>
<path style="fill:#2496f0; stroke:none;" d="M75 88L76 89L75 88z"/>
<path style="fill:#e3be49; stroke:none;" d="M39 89L40 90L39 89z"/>
<path style="fill:#2496f0; stroke:none;" d="M61 89L62 90L61 89M60 90L61 91L60 90M97 90L98 91L97 90z"/>
<path style="fill:#e3be49; stroke:none;" d="M59 91L60 92L59 91z"/>
<path style="fill:#2496f0; stroke:none;" d="M78 91L79 92L78 91z"/>
<path style="fill:#e3be49; stroke:none;" d="M79 92L80 93L79 92z"/>
<path style="fill:#2496f0; stroke:none;" d="M95 92L96 93L95 92M43 93L44 94L43 93z"/>
<path style="fill:#e3be49; stroke:none;" d="M56 93L57 94L56 93M81 93L82 94L81 93M94 93L95 94L94 93M45 94L46 95L45 94z"/>
<path style="fill:#2496f0; stroke:none;" d="M46 94L47 95L46 94M52 94L53 95L52 94z"/>
<path style="fill:#e3be49; stroke:none;" d="M53 94L54 95L53 94M84 94L85 95L84 94z"/>
<path style="fill:#2496f0; stroke:none;" d="M85 94L86 95L85 94M91 94L92 95L91 94z"/>
<path style="fill:#e3be49; stroke:none;" d="M92 94L93 95L92 94M62.6667 102.333L63.3333 102.667L62.6667 102.333M73 102L73 103L76 103L73 102z"/>
<path style="fill:#2496f0; stroke:none;" d="M59 103L60 104L59 103z"/>
<path style="fill:#1867c0; stroke:none;" d="M50 117C64.8405 110.913 73.1595 110.913 88 117C84.5053 97.6347 53.451 97.6523 50 117z"/>
<path style="fill:#2496f0; stroke:none;" d="M67 103L68 104L67 103M70 103L71 104L70 103M78 103L79 104L78 103M80 104L81 105L80 104M84 108L85 109L84 108M52 109L53 110L52 109z"/>
<path style="fill:#e3be49; stroke:none;" d="M85 109L86 110L85 109z"/>
<path style="fill:#2496f0; stroke:none;" d="M51 111L52 112L51 111M65.6667 111.333L66.3333 111.667L65.6667 111.333z"/>
<path style="fill:#e3be49; stroke:none;" d="M67 111L67 112L71 112L67 111z"/>
<path style="fill:#2496f0; stroke:none;" d="M71.6667 111.333L72.3333 111.667L71.6667 111.333z"/>
<path style="fill:#e3be49; stroke:none;" d="M86 111L87 112L86 111M61 112L62 113L61 112M76 112L77 113L76 112z"/>
<path style="fill:#2496f0; stroke:none;" d="M50 113L51 114L50 113z"/>
<path style="fill:#e3be49; stroke:none;" d="M58 113L59 114L58 113M79 113L80 114L79 113M87 113L88 114L87 113z"/>
<path style="fill:#2496f0; stroke:none;" d="M55 114L56 115L55 114M82 114L83 115L82 114z"/>
<path style="fill:#e3be49; stroke:none;" d="M49 115L50 116L49 115M53 115L54 116L53 115z"/>
<path style="fill:#2496f0; stroke:none;" d="M84 115L85 116L84 115M49 116L50 117L49 116z"/>
<path style="fill:#e3be49; stroke:none;" d="M51 116L52 117L51 116z"/>
<path style="fill:#2496f0; stroke:none;" d="M86 116L87 117L86 116z"/>
</svg>
